# xmcd
#
# Track frame offsets: 
#        150
#        12619
#        25644
#        38696
#        55943
#        70071
#        84048
#        97685
#        115993
#        128744
#        143443
#        155875
#        175502
#        188539
#        204107
#
# Disc length: 3068 seconds
#
# Revision: 0
# Processed by: cddbd v1.4PL0 Copyright (c) Steve Scherf et al.
# Submitted via: ExactAudioCopy v0.90b3
#
DISCID=ab0bfa0f
DTITLE=Various Artist - Solid Soul 1
DYEAR=2000
DGENRE=Soul
TTITLE0=For Your Precious Love
TTITLE1=Because
TTITLE2=Would You Still Say I'm The One You Love
TTITLE3=Funny How Time Slips Away
TTITLE4=Leaving Me
TTITLE5=Hold What You Got
TTITLE6=I Am A Witness
TTITLE7=That's How Strong My Love Is
TTITLE8=Sugar (Don't Take Away My Candy)
TTITLE9=Love Is A 5 Letter Word
TTITLE10=I Gotta Sit Down And Cry
TTITLE11=Soul Renegade
TTITLE12=Nine Out Of Ten Times
TTITLE13=Be Thankful For What You've Got
TTITLE14=Daddy's Home
EXTD=
EXTT0=
EXTT1=
EXTT2=
EXTT3=
EXTT4=
EXTT5=
EXTT6=
EXTT7=
EXTT8=
EXTT9=
EXTT10=
EXTT11=
EXTT12=
EXTT13=
EXTT14=
PLAYORDER=
